# xmcd
#
# Track frame offsets: 
#        150
#        16749
#        41415
#        56826
#        80825
#        99286
#        116552
#        137892
#        156414
#        178745
#        192601
#
# Disc length: 2941 seconds
#
# Revision: 0
# Processed by: cddbd v1.5.2PL0 Copyright (c) Steve Scherf et al.
# Submitted via: ExactAudioCopyFreeDBPlugin 1.0
#
DISCID=970b7b0b
DTITLE=Scott Tournet - Next To Canada
DYEAR=2004
DGENRE=Blues
TTITLE0=Simple Loss of Faith
TTITLE1=What I Can't Believe
TTITLE2=I Ain't Changin'
TTITLE3=Doin' Time
TTITLE4=All My Friends (Capitalist Lament)
TTITLE5=I Can't Tell
TTITLE6=Slow
TTITLE7=The Game
TTITLE8=Long Cold Lover
TTITLE9=The Marshfield Shuffle
TTITLE10=The Tock
EXTD=
EXTT0=
EXTT1=
EXTT2=
EXTT3=
EXTT4=
EXTT5=
EXTT6=
EXTT7=
EXTT8=
EXTT9=
EXTT10=
PLAYORDER=
